<?xml version="1.0" standalone="no"?><!DOCTYPE svg PUBLIC "-//W3C//DTD SVG 1.1//EN" "http://www.w3.org/Graphics/SVG/1.1/DTD/svg11.dtd"><svg t="1769602167035" class="icon" viewBox="0 0 1024 1024" version="1.1" xmlns="http://www.w3.org/2000/svg" p-id="13035" width="48" height="48" xmlns:xlink="http://www.w3.org/1999/xlink"><path d="M828.8 976H196.8c-43.2 0-78.4-33.6-80-75.2-12.8-240 1.6-395.2 41.6-462.4C236.8 307.2 336 256 512 256c182.4 0 264 40 345.6 172.8 44.8 73.6 62.4 232 49.6 470.4-1.6 43.2-36.8 76.8-78.4 76.8zM214.4 470.4c-19.2 32-49.6 129.6-33.6 425.6 0 8 8 14.4 16 14.4h632c8 0 16-6.4 16-14.4 14.4-296-19.2-398.4-40-433.6C734.4 350.4 672 320 512 320c-152 0-232 41.6-297.6 150.4z" fill="#ffffff" p-id="13036"></path><path d="M688 816H320c-52.8 0-96-43.2-96-96v-96c0-52.8 43.2-96 96-96h368c52.8 0 96 43.2 96 96v96c0 52.8-43.2 96-96 96zM320 592c-17.6 0-32 14.4-32 32v96c0 17.6 14.4 32 32 32h368c17.6 0 32-14.4 32-32v-96c0-17.6-14.4-32-32-32H320zM896 832v-60.8c36.8 0 67.2-30.4 67.2-67.2s-30.4-67.2-67.2-67.2V576c70.4 0 128 57.6 128 128s-57.6 128-128 128zM128 576v60.8c-36.8 0-67.2 30.4-67.2 67.2s30.4 67.2 67.2 67.2V832c-70.4 0-128-57.6-128-128s57.6-128 128-128zM496 144h64v160h-64z" fill="#ffffff" p-id="13037"></path><path d="M520 192c-48 0-88-40-88-88S472 16 520 16 608 56 608 104 568 192 520 192z m0-112c-12.8 0-24 11.2-24 24S507.2 128 520 128 544 116.8 544 104 532.8 80 520 80z" fill="#ffffff" p-id="13038"></path></svg>